<?xml version="1.0" encoding="UTF-8" standalone="no"?>
<svg
   xmlns:dc="http://purl.org/dc/elements/1.1/"
   xmlns:cc="http://creativecommons.org/ns#"
   xmlns:rdf="http://www.w3.org/1999/02/22-rdf-syntax-ns#"
   xmlns:svg="http://www.w3.org/2000/svg"
   xmlns="http://www.w3.org/2000/svg"
   xmlns:xlink="http://www.w3.org/1999/xlink"
   xmlns:sodipodi="http://sodipodi.sourceforge.net/DTD/sodipodi-0.dtd"
   xmlns:inkscape="http://www.inkscape.org/namespaces/inkscape"
   sodipodi:docname="InventurMD.svg"
   inkscape:version="1.0 (4035a4fb49, 2020-05-01)"
   id="svg8"
   version="1.1"
   viewBox="0 0 140.00008 130.68227"
   height="130.68227mm"
   width="140.00008mm">
  <defs
     id="defs2">
    <linearGradient
       gradientUnits="userSpaceOnUse"
       gradientTransform="scale(1.1188796,0.89375117)"
       id="q"
       x1="23.157721"
       x2="22.584213"
       y1="5.3992953"
       y2="34.472183">
      <stop
         stop-color="#fafafa"
         offset="0"
         id="stop24" />
      <stop
         stop-color="#a8a8a8"
         offset=".5"
         id="stop26" />
      <stop
         stop-color="#cdcdcd"
         offset="1"
         id="stop28" />
    </linearGradient>
    <linearGradient
       gradientUnits="userSpaceOnUse"
       gradientTransform="scale(0.72940515,1.3709802)"
       id="o"
       x1="12.33426"
       x2="21.452785"
       y1="9.3392601"
       y2="26.243361">
      <stop
         stop-color="#fff"
         stop-opacity=".701"
         offset="0"
         id="stop31" />
      <stop
         stop-color="#fff"
         stop-opacity="0"
         offset="1"
         id="stop33" />
    </linearGradient>
    <linearGradient
       gradientUnits="userSpaceOnUse"
       gradientTransform="scale(1.4380977,0.69536304)"
       id="m"
       x1="18.636738"
       x2="18.959375"
       y1="28.61808"
       y2="53.124348">
      <stop
         stop-color="#fff"
         offset="0"
         id="stop36" />
      <stop
         stop-color="#fff"
         stop-opacity="0"
         offset="1"
         id="stop38" />
    </linearGradient>
    <linearGradient
       gradientUnits="userSpaceOnUse"
       gradientTransform="scale(1.6013418,0.62447631)"
       id="n"
       x1="16.439808"
       x2="23.933199"
       y1="32.144943"
       y2="47.557709">
      <stop
         stop-color="#fff"
         stop-opacity=".134"
         offset="0"
         id="stop41" />
      <stop
         stop-color="#fff"
         stop-opacity=".052"
         offset="1"
         id="stop43" />
    </linearGradient>
    <linearGradient
       gradientUnits="userSpaceOnUse"
       gradientTransform="scale(1.1525115,0.86767028)"
       id="l"
       x1="19.305639"
       x2="17.136339"
       y1="43.363392"
       y2="17.143608">
      <stop
         offset="0"
         id="stop46" />
      <stop
         stop-opacity="0"
         offset="1"
         id="stop48" />
    </linearGradient>
    <linearGradient
       id="a">
      <stop
         offset="0"
         id="stop51" />
      <stop
         stop-opacity="0"
         offset="1"
         id="stop53" />
    </linearGradient>
    <linearGradient
       gradientUnits="userSpaceOnUse"
       gradientTransform="scale(1.67344,0.59757147)"
       id="p"
       x1="-628.64136"
       x2="-628.64136"
       y1="-252.1866"
       y2="548.31934">
      <stop
         stop-opacity="0"
         offset="0"
         id="stop56" />
      <stop
         offset=".5"
         id="stop58" />
      <stop
         stop-opacity="0"
         offset="1"
         id="stop60" />
    </linearGradient>
    <radialGradient
       id="r"
       cx="26.107"
       cy="38.195"
       r="32.259998"
       gradientTransform="matrix(1.0156,0,0.1031,1.0005,1.0393,-0.083695)"
       gradientUnits="userSpaceOnUse">
      <stop
         stop-color="#a0a0a0"
         offset="0"
         id="stop63" />
      <stop
         stop-color="#a8a8a8"
         offset="1"
         id="stop65" />
    </radialGradient>
    <radialGradient
       id="s"
       cx="605.71002"
       cy="486.64999"
       r="117.14"
       gradientTransform="matrix(2.7744,0,0,1.9697,-1843.6,-872.88)"
       gradientUnits="userSpaceOnUse"
       xlink:href="#a" />
    <radialGradient
       id="u"
       cx="8.8243999"
       cy="3.7560999"
       r="37.751999"
       gradientTransform="matrix(0.96827,0,0,1.0467,44.364,-17.007)"
       gradientUnits="userSpaceOnUse">
      <stop
         stop-color="#a3a3a3"
         offset="0"
         id="stop69" />
      <stop
         stop-color="#4c4c4c"
         offset="1"
         id="stop71" />
    </radialGradient>
    <radialGradient
       id="t"
       cx="605.71002"
       cy="486.64999"
       r="117.14"
       gradientTransform="matrix(-2.7744,0,0,1.9697,160.76,-872.88)"
       gradientUnits="userSpaceOnUse"
       xlink:href="#a" />
    <linearGradient
       gradientUnits="userSpaceOnUse"
       gradientTransform="scale(1.1188796,0.89375117)"
       id="q-8"
       x1="23.157721"
       x2="22.584213"
       y1="5.3992953"
       y2="34.472183">
      <stop
         stop-color="#fafafa"
         offset="0"
         id="stop260" />
      <stop
         stop-color="#a8a8a8"
         offset=".5"
         id="stop262" />
      <stop
         stop-color="#cdcdcd"
         offset="1"
         id="stop264" />
    </linearGradient>
    <linearGradient
       gradientUnits="userSpaceOnUse"
       gradientTransform="scale(0.72940515,1.3709802)"
       id="o-9"
       x1="12.33426"
       x2="21.452785"
       y1="9.3392601"
       y2="26.243361">
      <stop
         stop-color="#fff"
         stop-opacity=".701"
         offset="0"
         id="stop267" />
      <stop
         stop-color="#fff"
         stop-opacity="0"
         offset="1"
         id="stop269" />
    </linearGradient>
    <linearGradient
       gradientUnits="userSpaceOnUse"
       gradientTransform="scale(1.4380977,0.69536304)"
       id="m-2"
       x1="18.636738"
       x2="18.959375"
       y1="28.61808"
       y2="53.124348">
      <stop
         stop-color="#fff"
         offset="0"
         id="stop272" />
      <stop
         stop-color="#fff"
         stop-opacity="0"
         offset="1"
         id="stop274" />
    </linearGradient>
    <linearGradient
       gradientUnits="userSpaceOnUse"
       gradientTransform="scale(1.6013418,0.62447631)"
       id="n-5"
       x1="16.439808"
       x2="23.933199"
       y1="32.144943"
       y2="47.557709">
      <stop
         stop-color="#fff"
         stop-opacity=".134"
         offset="0"
         id="stop277" />
      <stop
         stop-color="#fff"
         stop-opacity=".052"
         offset="1"
         id="stop279" />
    </linearGradient>
    <linearGradient
       gradientUnits="userSpaceOnUse"
       gradientTransform="scale(1.1525115,0.86767028)"
       id="l-4"
       x1="19.305639"
       x2="17.136339"
       y1="43.363392"
       y2="17.143608">
      <stop
         offset="0"
         id="stop282" />
      <stop
         stop-opacity="0"
         offset="1"
         id="stop284" />
    </linearGradient>
    <linearGradient
       gradientUnits="userSpaceOnUse"
       gradientTransform="scale(1.67344,0.59757147)"
       id="p-2"
       x1="-628.64136"
       x2="-628.64136"
       y1="-252.1866"
       y2="548.31934">
      <stop
         stop-opacity="0"
         offset="0"
         id="stop292" />
      <stop
         offset=".5"
         id="stop294" />
      <stop
         stop-opacity="0"
         offset="1"
         id="stop296" />
    </linearGradient>
    <radialGradient
       id="r-4"
       cx="26.107"
       cy="38.195"
       r="32.259998"
       gradientTransform="matrix(1.0156,0,0.1031,1.0005,1.0393,-0.083695)"
       gradientUnits="userSpaceOnUse">
      <stop
         stop-color="#a0a0a0"
         offset="0"
         id="stop299" />
      <stop
         stop-color="#a8a8a8"
         offset="1"
         id="stop301" />
    </radialGradient>
    <radialGradient
       id="s-1"
       cx="605.71002"
       cy="486.64999"
       r="117.14"
       gradientTransform="matrix(2.7744,0,0,1.9697,-1843.6,-872.88)"
       gradientUnits="userSpaceOnUse"
       xlink:href="#a" />
    <radialGradient
       id="u-9"
       cx="8.8243999"
       cy="3.7560999"
       r="37.751999"
       gradientTransform="matrix(0.96827,0,0,1.0467,44.364,-17.007)"
       gradientUnits="userSpaceOnUse">
      <stop
         stop-color="#a3a3a3"
         offset="0"
         id="stop305" />
      <stop
         stop-color="#4c4c4c"
         offset="1"
         id="stop307" />
    </radialGradient>
    <radialGradient
       id="t-9"
       cx="605.71002"
       cy="486.64999"
       r="117.14"
       gradientTransform="matrix(-2.7744,0,0,1.9697,160.76,-872.88)"
       gradientUnits="userSpaceOnUse"
       xlink:href="#a" />
  </defs>
  <sodipodi:namedview
     inkscape:window-maximized="1"
     inkscape:window-y="-8"
     inkscape:window-x="1974"
     inkscape:window-height="1057"
     inkscape:window-width="1858"
     fit-margin-bottom="5"
     fit-margin-right="5"
     fit-margin-left="5"
     fit-margin-top="5"
     showgrid="false"
     inkscape:document-rotation="0"
     inkscape:current-layer="layer1"
     inkscape:document-units="mm"
     inkscape:cy="402.35995"
     inkscape:cx="350.67625"
     inkscape:zoom="0.98994949"
     inkscape:pageshadow="2"
     inkscape:pageopacity="0.0"
     borderopacity="1.0"
     bordercolor="#666666"
     pagecolor="#ffffff"
     id="base" />
  <metadata
     id="metadata5">
    <rdf:RDF>
      <cc:Work
         rdf:about="">
        <dc:format>image/svg+xml</dc:format>
        <dc:type
           rdf:resource="http://purl.org/dc/dcmitype/StillImage" />
        <dc:title></dc:title>
      </cc:Work>
    </rdf:RDF>
  </metadata>
  <g
     transform="translate(4.9999999,5)"
     id="layer1"
     inkscape:groupmode="layer"
     inkscape:label="Ebene 1">
    <circle
       r="50"
       cy="50"
       cx="64"
       id="path493"
       style="fill:#4dc7d6;fill-opacity:0.852151;stroke-width:0.252707" />
    <text
       id="text1373"
       y="120.4915"
       x="-2.2891815"
       style="font-style:normal;font-weight:normal;font-size:26.0458px;line-height:1.25;font-family:sans-serif;fill:#000000;fill-opacity:1;stroke:none;stroke-width:0.27131"
       xml:space="preserve"><tspan
         style="font-style:normal;font-variant:normal;font-weight:normal;font-stretch:normal;font-size:26.0458px;font-family:Bahnschrift;-inkscape-font-specification:Bahnschrift;stroke-width:0.27131"
         y="120.4915"
         x="-2.2891815"
         id="tspan1371"
         sodipodi:role="line"><tspan
           id="tspan1375"
           style="font-size:26.0458px;fill:#0000ff;stroke-width:0.27131">Inventur</tspan><tspan
           id="tspan1377"
           style="font-size:26.0458px;fill:#ff0000;stroke-width:0.27131">MD</tspan></tspan></text>
    <circle
       style="fill:#2cacba;fill-opacity:0.852151;stroke-width:0.227436"
       id="circle1379"
       cx="64"
       cy="50"
       r="45" />
    <g
       transform="matrix(1.3148871,0,0,1.3148871,32.586597,20.3418)"
       id="g491">
      <g
         stroke-linecap="round"
         id="g333">
        <g
           stroke-linejoin="round"
           id="g323">
          <path
             d="m 4.62,38.651 c 0.04181,0.42045 0.49738,0.8409 0.91115,0.8409 h 31.136 c 0.41377,0 0.78573,-0.42045 0.74392,-0.8409 l -2.6966,-27.119 c -0.04181,-0.42046 -0.49738,-0.84091 -0.91115,-0.84091 h -12.723 c -0.59054,0 -1.2091,-0.37955 -1.4029,-0.96034 l -1.103,-3.3059 c -0.16925,-0.50728 -0.54715,-0.7358 -1.3145,-0.7358 h -14.937 c -0.41377,0 -0.78573,0.42046 -0.74392,0.84091 l 3.0415,32.121 z"
             fill="url(#r)"
             stroke="#5a5a5a"
             id="path313"
             style="fill:url(#r-4)" />
          <g
             fill="#729fcf"
             stroke="#000000"
             id="g321">
            <path
               d="m 3.3386,17.534 h 31.15"
               opacity="0.114"
               id="path315" />
            <path
               d="m 5.3301,37.534 h 29.988"
               opacity="0.114"
               id="path317" />
            <path
               d="m 5.3301,35.534 h 29.988"
               opacity="0.114"
               id="path319" />
          </g>
        </g>
        <g
           transform="matrix(0.021652,0,0,0.019038,42.415,36.934)"
           id="g331">
          <rect
             x="-1559.3"
             y="-150.7"
             width="1339.6"
             height="478.35999"
             fill="url(#p)"
             opacity="0.402"
             id="rect325"
             style="fill:url(#p-2)" />
          <path
             d="m -219.62,-150.68 v 478.33 c 142.87,0.90045 345.4,-107.17 345.4,-239.2 0,-132.03 -159.44,-239.14 -345.4,-239.14 z"
             fill="url(#s)"
             opacity="0.402"
             id="path327"
             style="fill:url(#s-1)" />
          <path
             d="m -1559.3,-150.68 v 478.33 c -142.87,0.90045 -345.4,-107.17 -345.4,-239.2 0,-132.03 159.44,-239.14 345.4,-239.14 z"
             fill="url(#t)"
             opacity="0.402"
             id="path329"
             style="fill:url(#t-9)" />
        </g>
      </g>
      <path
         d="M 6.1718,38.419 C 6.20316,38.72933 6.01718,38.93622 5.6964,38.83277 5.37562,38.72933 5.14783,38.52245 5.11647,38.21212 L 2.08687,6.84512 C 2.05551,6.5348 2.24346,6.3474 2.55379,6.3474 l 14.75,-0.0915 c 0.53128,-0.00329 0.73943,0.05331 0.8798,0.51722 0,0 1.0854,3.1128 1.2462,3.6981 l -1.5556,-2.917 C 17.60901,7.05695 17.27544,7.14045 16.9014,7.14045 H 3.7724 c -0.31033,0 -0.49631,0.20688 -0.46495,0.51721 l 2.9788,30.865 -0.1139,-0.1035 z"
         fill="url(#o)"
         stroke-width="1.173"
         id="path335"
         style="fill:url(#o-9)" />
      <g
         display="block"
         stroke="#000000"
         id="g369">
        <g
           fill="#729fcf"
           stroke-linecap="round"
           stroke-linejoin="round"
           id="g341">
          <path
             d="m 2.3052,7.5335 h 14.784"
             opacity="0.114"
             id="path337" />
          <path
             d="m 2.7573,11.534 h 30.739"
             opacity="0.114"
             id="path339" />
        </g>
        <g
           transform="matrix(1.0344,0,0.10452,1.0344,-10.032,2.6319)"
           fill="#ffffff"
           fill-opacity="0.58"
           id="g345">
          <path
             d="M 41.786,9.0364 C 41.7956,8.56181 41.80119,8.31189 41.36261,8.31219 l -12.556,0.0087 c -0.3,0 -0.32461,-0.14321 0,0 0.32461,0.14321 1.2471,0.65827 2.1827,0.701 0,0 10.796,0.016459 10.796,0.01455 z"
             id="path343" />
        </g>
        <g
           fill="#729fcf"
           stroke-linecap="round"
           stroke-linejoin="round"
           id="g363">
          <path
             d="m 3.1629,15.534 h 30.83"
             opacity="0.114"
             id="path347" />
          <path
             d="m 5.1595,33.534 h 29.988"
             opacity="0.114"
             id="path349" />
          <path
             d="m 4.8658,31.534 h 30.109"
             opacity="0.114"
             id="path351" />
          <path
             d="m 4.6336,29.534 h 30.169"
             opacity="0.114"
             id="path353" />
          <path
             d="M 4.463,27.534 H 34.632"
             opacity="0.114"
             id="path355" />
          <path
             d="m 4.2557,25.534 h 30.205"
             opacity="0.114"
             id="path357" />
          <path
             d="m 4.0235,23.534 h 30.266"
             opacity="0.114"
             id="path359" />
          <path
             d="m 3.8528,21.534 h 30.266"
             opacity="0.114"
             id="path361" />
        </g>
        <g
           transform="matrix(1.0344,0,0.10452,1.0344,-10.032,2.6319)"
           fill="#ffffff"
           fill-opacity="0.58"
           id="g367">
          <path
             d="M 41.786,9.0364 C 41.7956,8.56181 41.80119,8.31189 41.36261,8.31219 l -12.556,0.0087 c -0.3,0 -0.32461,-0.14321 0,0 0.32461,0.14321 1.2471,0.65827 2.1827,0.701 0,0 10.796,0.016459 10.796,0.01455 z"
             id="path365" />
        </g>
      </g>
      <g
         stroke-linejoin="round"
         id="g381">
        <g
           fill="#729fcf"
           stroke="#000000"
           stroke-linecap="round"
           id="g377">
          <path
             d="m 2.9642,13.534 h 31.026"
             opacity="0.114"
             id="path371" />
          <path
             d="m 3.6514,19.534 h 30.296"
             opacity="0.114"
             id="path373" />
          <path
             d="m 2.5243,9.5335 h 15.281"
             opacity="0.114"
             id="path375" />
        </g>
        <path
           d="M 34.375,14.125 37,38.75 6,38.875 4.125,14.125 Z"
           fill="url(#l)"
           opacity="0.392"
           id="path379"
           style="fill:url(#l-4)" />
      </g>
      <path
         d="m 43.375,2.4944 c 0.5,16.879 -9.0751,18.528 -6.0126,29 l -31.487,0.88594 c -1.875,-12.853 8.375,-21.214 5.375,-29.731 l 32.125,-0.1549 z"
         fill="url(#q)"
         stroke="url(#u)"
         id="path383"
         style="fill:url(#q-8);stroke:url(#u-9)" />
      <path
         d="M 15.438,6.5625 H 39"
         fill="none"
         stroke="#a1a1a1"
         id="path385" />
      <path
         d="m 4.8548,39.066 c 0.10344,0.21147 0.31032,0.42293 0.62065,0.42293 h 33.308 c 0.20689,0 0.52116,-0.12631 0.70817,-0.26435 0.53041,-0.39154 0.65487,-0.61239 0.89278,-0.97347 2.4481,-3.7155 5.8052,-19.277 5.8052,-19.277 0.10344,-0.21146 -0.10344,-0.42292 -0.41377,-0.42292 h -34.924 c -0.31033,0 -1.656,16.107 -4.863,19.287 l -1.2382,1.2277 h 0.10345 z"
         fill="#c8ce27"
         stroke="#a3a334"
         stroke-linejoin="round"
         id="path387" />
      <path
         d="M 15.356,8.5625 H 35.081"
         fill="none"
         stroke="#a1a1a1"
         id="path389" />
      <path
         d="m 13.134,20.139 c -0.77275,4.9908 -1.5013,9.0092 -2.716,13.514 2.3865,-0.7071 7.1161,-3.2045 17.116,-3.2045 10,0 16.724,-9.2487 17.652,-10.354 l -32.052,0.0442 z"
         fill="url(#n)"
         fill-rule="evenodd"
         id="path391"
         style="fill:url(#n-5)" />
      <g
         fill="none"
         id="g405">
        <path
           d="M 15.143,10.562 H 39.458"
           stroke="#a1a1a1"
           id="path393" />
        <path
           d="M 45.82,19.688 H 12.662 c 0,0 -2.1478,16.02 -4.7223,18.241 8.1211,0 31.571,-0.04864 31.591,-0.04864 1.7517,0 4.9076,-12.636 6.2898,-18.192 z"
           fill-rule="evenodd"
           opacity="0.523"
           stroke="url(#m)"
           stroke-linecap="round"
           id="path395"
           style="stroke:url(#m-2)" />
        <g
           stroke="#a1a1a1"
           id="g403">
          <path
             d="M 14.399,12.562 H 38.252"
             id="path397" />
          <path
             d="M 13.629,14.562 H 36.975"
             id="path399" />
          <path
             d="M 12.521,16.562 H 31.167"
             id="path401" />
        </g>
      </g>
      <path
         d="M 6.375,31.75 C 5.1336,19.512 13.5625,12.688 12,3 h 30.875 l -30,0.625 c 1.25,9.5625 -6.1964,14.646 -6.5,28.125 z"
         fill="#ffffff"
         id="path407" />
    </g>
  </g>
</svg>
